PathFileType	4	(X/Y/Z)	D:\TRACE\v60_Jaco2_6-2-23\BothDRS_Motion1_7-platform.trc
DataRate	CameraRate	NumFrames	NumMarkers	Units	OrigDataRate	OrigDataStartFrame	OrigNumFrames
100.00	100.00	      72	5	mm	100.00	2813	      7500
Frame#	Time	Left_Front			Right_Front			Left_Aft			Right_Aft			Post			
		X1	Y1	Z1	X2	Y2	Z2	X3	Y3	Z3	X4	Y4	Z4	X5	Y5	Z5	

2813	28.120	-760.76483	36.64288	-631.97961	809.16339	37.72794	-637.01447	-669.57837	-11.26843	501.97095	772.77466	-13.52025	511.48904	25.80826	1347.74500	-900.06165	
2814	28.130	-761.27386	36.76530	-632.02362	808.53839	38.03381	-637.11908	-669.82684	-11.35270	502.04282	772.08698	-13.85554	511.41852	25.33312	1347.85339	-899.78613	
2815	28.140	-761.99939	36.87940	-632.11066	807.95074	38.11411	-637.07892	-670.39612	-11.61136	502.10577	770.86572	-14.25748	511.29459	24.77510	1348.04419	-899.49872	
2816	28.150	-762.73315	36.96301	-632.09680	807.42780	38.15949	-637.01410	-671.25604	-11.31717	501.88483	769.54865	-14.21372	511.64096	23.91448	1348.30481	-899.20441	
2817	28.160	-763.25470	36.91864	-631.78357	806.66290	38.13402	-636.97504	-671.38550	-11.72517	502.14316	770.08313	-13.96003	511.56412	23.25500	1348.46106	-898.95502	
2818	28.170	-763.72125	37.07083	-631.79059	806.07050	38.26447	-636.90552	-672.07263	-11.97098	502.39560	769.83447	-14.08178	511.37222	22.51066	1348.62305	-899.16144	
2819	28.180	-764.44562	37.11543	-631.71582	805.53510	38.43087	-636.90546	-672.62866	-12.10994	502.33917	769.05878	-14.13334	511.32867	21.93654	1348.70715	-899.48145	
2820	28.190	-765.08319	37.25796	-631.82166	804.94061	38.60298	-636.90283	-673.22406	-12.18199	502.31329	768.17950	-14.35729	511.24792	21.37446	1348.78699	-899.56470	
2821	28.200	-766.01251	37.42540	-631.71674	804.16351	38.73593	-636.78369	-673.84064	-12.29560	502.27744	767.34100	-14.29973	511.35608	20.85936	1348.92371	-899.43781	
2822	28.210	-766.67157	37.55442	-631.88483	803.42377	38.73027	-636.72070	-674.72803	-12.37065	502.21808	767.16229	-14.34774	511.33911	19.85403	1349.18201	-899.13989	
2823	28.220	-767.06433	37.55856	-631.82867	802.99512	38.80290	-636.75269	-675.19629	-12.30895	502.16364	766.64886	-14.31685	511.57254	19.25491	1349.27307	-898.73413	
2824	28.230	-767.69354	37.63482	-631.73999	802.30902	38.92282	-636.81256	-676.09027	-12.36148	502.23608	765.99133	-14.14523	511.74265	18.95946	1349.41992	-898.36029	
2825	28.240	-768.20154	37.72520	-631.51501	801.63013	39.06276	-636.72388	-676.65540	-12.41054	502.38065	765.50525	-13.91904	511.82831	18.20454	1349.28857	-897.98499	
2826	28.250	-769.46167	37.94960	-631.37280	800.74902	39.17557	-636.68219	-677.29260	-12.45000	502.54901	765.01135	-14.01398	511.90607	16.89630	1349.22864	-897.56360	
2827	28.260	-770.09039	37.92456	-631.65137	799.95660	39.02759	-636.65540	-677.92188	-12.54268	502.49951	763.92078	-14.21141	512.12006	16.29775	1349.34351	-897.59100	
2828	28.270	-770.80200	37.76850	-631.71545	799.37439	38.54881	-636.75977	-678.69580	-12.52540	502.32458	763.34393	-14.06286	512.05011	15.84875	1349.41345	-897.84760	
2829	28.280	-771.38367	37.57272	-631.79443	798.69720	38.47694	-636.74133	-679.41254	-12.73652	502.29517	762.82922	-13.88701	512.11560	15.26448	1349.36023	-897.51324	
2830	28.290	-772.01642	37.71849	-631.51215	797.30164	38.46782	-636.85834	-680.14813	-12.87109	502.32919	761.67938	-14.00416	512.37598	14.37784	1349.35352	-897.70575	
2831	28.300	-773.24493	37.82236	-631.43719	796.70361	38.61713	-636.76947	-680.60638	-12.92418	502.31308	760.72247	-14.24541	511.64825	13.27388	1349.62036	-898.08942	
2832	28.310	-773.93549	38.06519	-631.68884	795.92389	38.85970	-636.71381	-681.61011	-13.05735	502.44614	760.39191	-14.15514	512.37280	12.62613	1349.86255	-898.08313	
2833	28.320	-774.71338	38.08078	-631.56122	795.34204	38.85267	-636.80701	-682.22424	-13.15557	502.46701	760.05347	-14.03432	512.25269	12.03236	1349.82581	-897.87457	
2834	28.330	-775.15344	37.86021	-631.56458	794.42017	38.91224	-636.90741	-683.20081	-12.73061	502.56305	758.56720	-13.99001	512.36725	11.23126	1349.84290	-897.77808	
2835	28.340	-776.13007	37.83685	-631.25446	793.43774	38.79550	-636.85065	-684.30219	-12.75101	502.48471	757.71649	-14.10854	512.10834	10.52654	1349.73474	-897.35974	
2836	28.350	-777.03168	37.80289	-631.38373	792.67902	38.47607	-636.90808	-685.89069	-12.17356	502.67618	757.23151	-14.24310	512.17065	9.65645	1349.56628	-896.99982	
2837	28.360	-778.00958	38.04167	-631.53168	791.73975	38.49205	-636.75586	-686.73169	-12.06256	502.67294	756.22760	-14.28962	512.18622	8.72551	1349.58887	-896.94800	
2838	28.370	-778.69336	38.12059	-631.49963	791.06110	38.56471	-636.75421	-687.18158	-12.05784	502.62390	755.43982	-14.01806	512.08649	7.76326	1349.58789	-896.91547	
2839	28.380	-779.45239	38.06834	-631.41589	790.26141	38.69510	-636.74963	-688.05908	-12.01146	502.57007	754.75665	-13.97191	512.13416	6.86475	1349.69934	-897.09393	
2840	28.390	-780.38293	37.93109	-631.49634	789.37872	38.62370	-636.75128	-688.69025	-12.28286	502.54279	753.80414	-14.05405	512.14337	6.18731	1349.57910	-897.36127	
2841	28.400	-781.36261	37.75935	-631.58942	788.58752	38.49758	-636.66028	-689.41351	-12.48983	502.49655	752.84637	-14.18253	512.19232	5.16067	1349.50757	-897.88275	
2842	28.410	-782.07819	37.86472	-631.71564	787.41479	38.48581	-636.76227	-690.35254	-12.51153	502.59030	752.15179	-14.02040	512.17908	4.60193	1349.37354	-897.96771	
2843	28.420	-782.92847	38.00914	-631.40149	786.83807	38.40371	-636.82733	-691.23999	-12.37341	502.55966	750.98083	-14.01180	512.35742	4.04285	1349.30762	-898.32996	
2844	28.430	-783.63928	37.92934	-631.33063	786.03082	38.46667	-636.73828	-691.94543	-12.29912	502.71164	750.59357	-13.91272	512.29926	2.61264	1349.40601	-898.97168	
2845	28.440	-784.77863	37.71102	-631.52173	785.02808	38.27902	-636.75452	-692.84955	-12.29613	502.70056	749.69122	-13.87636	512.24115	1.69280	1349.30640	-898.79767	
2846	28.450	-785.62390	37.69858	-631.78381	784.05139	38.22171	-636.85413	-693.85394	-12.30335	502.54681	748.29211	-13.87904	511.67627	0.98352	1349.24597	-898.68494	
2847	28.460	-786.61700	37.68085	-631.67218	783.29504	38.28768	-636.83698	-694.79858	-12.25336	502.51370	747.63043	-13.89564	512.30298	0.40956	1348.97900	-898.79205	
2848	28.470	-787.31903	37.63656	-631.44995	782.34332	38.31205	-636.76373	-695.72760	-12.13418	502.43240	746.76172	-13.91994	512.22736	-0.91912	1348.94104	-898.52271	
2849	28.480	-788.34802	37.55711	-631.41650	781.36414	38.44138	-636.75867	-696.63202	-12.10483	502.43033	745.77808	-13.71080	512.14880	-1.93305	1348.88953	-898.18243	
2850	28.490	-789.22595	37.58342	-631.64624	780.73621	38.38115	-636.69446	-697.32294	-12.21118	502.40790	744.95325	-13.71333	512.05371	-2.46015	1348.92761	-898.15411	
2851	28.500	-790.17767	37.73839	-631.60907	779.77771	38.30776	-636.75653	-698.25488	-12.13110	502.61835	743.80048	-13.72534	512.07074	-3.16685	1348.86853	-898.14124	
2852	28.510	-791.02515	37.57811	-631.42065	778.83209	38.03222	-636.92004	-699.29059	-12.13026	502.74951	742.87872	-13.81465	512.08807	-4.59168	1348.64624	-898.19037	
2853	28.520	-791.99658	36.99973	-631.41016	777.78198	38.07680	-636.90039	-699.99072	-12.15338	502.63205	742.22803	-13.61247	512.06219	-5.63847	1348.51538	-898.70715	
2854	28.530	-792.91064	37.24435	-631.79486	776.89905	37.95717	-636.83270	-701.06982	-12.13155	502.53928	740.91559	-13.46967	512.21167	-6.05524	1348.25037	-898.96100	
2855	28.540	-794.03387	37.38488	-631.63538	775.97107	37.98093	-636.90833	-701.99152	-12.12670	502.43878	740.40118	-13.31463	512.18768	-7.75158	1348.09473	-899.67950	
2856	28.550	-794.85931	37.39042	-631.57874	774.89221	37.98387	-636.90118	-702.45367	-12.13611	502.50162	739.51910	-13.19732	512.15765	-8.43808	1348.20313	-900.30365	
2857	28.560	-795.74933	36.84726	-631.56427	774.10132	37.73367	-636.80902	-703.29865	-12.73051	503.22949	738.30884	-13.29372	512.03210	-8.84678	1348.05225	-900.46429	
2858	28.570	-796.69031	36.61040	-631.80035	773.03503	37.43772	-636.83057	-704.46118	-12.22562	502.38913	737.43518	-13.27867	512.11151	-10.60912	1348.08032	-900.87494	
2859	28.580	-797.84808	36.40218	-631.78766	772.14246	37.28102	-636.95984	-705.14233	-12.58993	502.47330	735.99573	-13.07779	512.00885	-11.30326	1347.62256	-901.11005	
2860	28.590	-798.49573	36.19356	-631.48523	771.30249	37.23755	-637.05176	-706.89606	-11.51035	502.39722	735.58325	-13.04038	511.96613	-12.06505	1347.52515	-901.19543	
2861	28.600	-799.41724	36.26748	-631.70398	770.38342	37.24771	-636.94067	-707.69043	-11.54457	502.29166	734.66406	-12.93689	511.85828	-12.96584	1347.48230	-901.55933	
2862	28.610	-800.63245	36.45884	-631.87518	769.35248	37.31499	-636.98358	-708.45123	-11.37511	502.39032	733.11932	-12.83869	511.99136	-13.94271	1347.26831	-901.50055	
2863	28.620	-801.80212	36.09629	-631.72186	768.15747	37.46662	-636.99884	-709.63165	-11.28470	502.33734	732.46307	-13.05741	511.99905	-14.85860	1347.23718	-901.43085	
2864	28.630	-802.57709	35.95710	-631.68066	767.32275	37.27680	-637.15802	-710.40784	-11.52516	502.19632	731.48352	-13.00743	511.85913	-15.73115	1346.98755	-901.03833	
2865	28.640	-803.31427	35.59037	-631.86444	766.26239	36.87755	-637.19849	-711.36188	-11.31895	502.07080	730.67377	-12.77074	511.84256	-17.09487	1346.79333	-901.42578	
2866	28.650	-804.58405	35.56206	-632.01880	765.38452	36.80902	-637.21820	-712.56921	-11.04533	502.24780	729.86334	-12.49515	511.97296	-17.96646	1346.38940	-901.54309	
2867	28.660	-805.61090	35.39797	-631.94232	764.63135	36.41420	-637.21301	-713.36523	-10.87206	502.21579	728.76105	-12.28174	511.89581	-18.66654	1345.79248	-901.85791	
2868	28.670	-806.40710	35.16941	-632.03046	763.56531	36.37336	-637.12036	-714.38623	-10.75213	502.21518	727.81714	-12.27501	511.78888	-19.54592	1345.60486	-902.56512	
2869	28.680	-807.32892	34.76875	-632.04865	762.45416	35.91278	-637.37628	-715.30188	-10.71802	502.10495	726.68585	-12.28907	511.86200	-20.71311	1345.63879	-903.59155	
2870	28.690	-808.63715	34.75977	-632.06708	761.63892	35.83297	-637.29572	-717.03217	-9.63475	502.22653	725.60925	-12.11750	511.21741	-21.66862	1345.21545	-905.03979	
2871	28.700	-809.38617	34.79602	-632.23059	760.71594	35.95740	-637.15594	-718.08649	-9.67628	502.27484	724.92706	-11.82552	511.69302	-22.73423	1344.96765	-905.91412	
2872	28.710	-810.25385	34.63337	-632.33673	759.95276	35.83297	-637.24646	-718.54266	-10.06816	502.03229	723.85437	-11.96646	511.59665	-23.26700	1344.71973	-906.58600	
2873	28.720	-811.21582	34.35012	-632.21912	758.88013	35.61744	-637.21790	-719.61365	-9.88063	502.16064	722.57507	-11.68025	511.65704	-24.41738	1344.74707	-907.10089	
2874	28.730	-812.34045	34.46204	-632.11578	757.89453	35.48117	-637.22205	-720.51831	-9.84376	502.30585	721.86816	-11.70102	511.66275	-25.31250	1344.71252	-907.56274	
2875	28.740	-813.29486	34.42083	-632.21851	756.92816	35.40225	-637.17981	-721.31958	-9.91454	502.14151	721.03113	-11.82372	511.65213	-26.00782	1344.67468	-907.84155	
2876	28.750	-814.13861	34.23462	-632.29614	755.99109	35.27335	-637.29987	-722.25543	-9.82165	502.15631	720.28308	-11.44462	511.67871	-27.42495	1344.61755	-907.44482	
2877	28.760	-815.07166	34.03239	-632.37506	755.15912	34.96014	-637.34229	-723.07068	-9.78553	502.20169	719.26929	-11.30398	511.70908	-28.47316	1344.38379	-906.83301	
2878	28.770	-816.25354	34.08018	-632.27393	753.95691	34.94963	-637.24072	-724.09167	-9.67483	502.05447	718.18378	-11.32669	511.74097	-29.03558	1343.82178	-906.22601	
2879	28.780	-816.97113	33.80896	-632.27448	753.07605	34.77802	-637.31409	-724.97308	-9.56730	501.93878	717.36731	-11.07748	511.64117	-30.35192	1343.45764	-905.62842	
2880	28.790	-817.98462	33.46055	-632.55353	752.20081	34.45735	-637.54449	-726.09564	-9.32165	501.92426	716.22693	-11.01284	511.50897	-31.20558	1343.27625	-905.68652	
2881	28.800	-818.93652	33.29548	-632.55585	751.07208	34.32307	-637.55237	-726.90021	-9.07302	501.85577	715.32019	-10.87896	511.54684	-32.11913	1343.02222	-906.12756	
2882	28.810	-819.98578	33.32945	-632.56946	750.30389	34.12643	-637.52002	-727.89636	-9.05762	501.90805	714.45349	-10.58240	511.38675	-33.31144	1342.63538	-906.95020	
2883	28.820	-820.89136	32.85004	-632.71570	749.29663	33.93755	-637.63135	-728.80756	-9.02176	501.90613	713.26843	-10.59966	511.36441	-34.08805	1342.30383	-907.81738	
2884	28.830	-821.65369	32.64172	-632.95667	748.54449	33.60914	-637.61395	-729.75812	-8.80231	502.02887	712.62286	-10.51005	511.26395	-34.92427	1342.14136	-909.51135	
